<svg viewBox="0 0 32 32" xmlns="http://www.w3.org/2000/svg" aria-label="JSON" fill="currentColor">
  <path d="M4 4v24h24V4H4zm18.4 5.6h1.067c.4 0 .8.133 1.066.4.267.4.4.8.4 1.2v6.933c0 1.067-.8 1.734-1.6 2.134.8.4 1.6 1.067 1.6 2.133V28h-1.6v-5.6c0-.8-.533-1.467-1.333-1.467h-.8v-1.6h.8c.8 0 1.333-.666 1.333-1.466v-6.8c0-.134.134-.267.267-.4h-.2zm-12.8 0c.133 0 .267.133.267.267v6.8c0 .8.533 1.466 1.333 1.466h.8v1.6h-.8c-.8 0-1.333.667-1.333 1.467V28h-1.6v-5.6c0-1.066.8-1.733 1.6-2.133-.8-.4-1.6-1.067-1.6-2.134v-6.8c0-.533.133-.933.4-1.2.267-.4.667-.533 1.067-.533h1.066zm6.4 2.4c1.333 0 2.4 1.067 2.4 2.4v6.4c0 1.333-1.067 2.4-2.4 2.4s-2.4-1.067-2.4-2.4v-6.4c0-1.333 1.067-2.4 2.4-2.4zm0 1.6c-.533 0-.8.4-.8.8v6.4c0 .533.4.8.8.8s.8-.4.8-.8v-6.4c0-.4-.267-.8-.8-.8z"/>
</svg>
