<svg width="60" height="60" viewBox="0 0 60 60" fill="none" xmlns="http://www.w3.org/2000/svg">
<path d="M43.9641 33.9469L36.4641 30.1969C36.1689 30.0498 35.84 29.9831 35.5108 30.0037C35.1816 30.0243 34.8637 30.1313 34.5891 30.3141L31.1461 32.6109C29.5656 31.7421 28.265 30.4414 27.3961 28.8609L29.693 25.418C29.8757 25.1434 29.9828 24.8254 30.0033 24.4962C30.0239 24.167 29.9573 23.8382 29.8102 23.543L26.0602 16.043C25.9047 15.7291 25.6645 15.465 25.3666 15.2807C25.0688 15.0963 24.7253 14.9991 24.375 15C21.8886 15 19.504 15.9877 17.7459 17.7459C15.9877 19.504 15 21.8886 15 24.375C15.0062 29.8432 17.1812 35.0856 21.0478 38.9522C24.9144 42.8188 30.1568 44.9938 35.625 45C36.8562 45 38.0752 44.7575 39.2127 44.2864C40.3501 43.8152 41.3836 43.1247 42.2541 42.2541C43.1247 41.3836 43.8153 40.3501 44.2864 39.2127C44.7575 38.0752 45 36.8561 45 35.625C45.0003 35.2767 44.9035 34.9351 44.7205 34.6387C44.5375 34.3423 44.2756 34.1028 43.9641 33.9469ZM35.625 41.25C31.151 41.245 26.8617 39.4655 23.6981 36.3019C20.5345 33.1383 18.755 28.849 18.75 24.375C18.7496 23.0745 19.1999 21.814 20.0242 20.8081C20.8485 19.8022 21.9959 19.113 23.2711 18.8578L25.9617 24.2484L23.6719 27.6562C23.5008 27.9129 23.3956 28.2079 23.3658 28.5149C23.3359 28.8219 23.3823 29.1316 23.5008 29.4164C24.8423 32.6048 27.3788 35.1413 30.5672 36.4828C30.8529 36.6066 31.1649 36.6572 31.4751 36.6302C31.7852 36.6032 32.0838 36.4994 32.3438 36.3281L35.768 34.0453L41.1586 36.7359C40.9014 38.0126 40.2092 39.1605 39.2 39.9837C38.1909 40.8069 36.9273 41.2545 35.625 41.25ZM30 5.625C25.7917 5.62408 21.6549 6.71271 17.9922 8.78491C14.3294 10.8571 11.2656 13.8423 9.09885 17.4499C6.93211 21.0575 5.7363 25.1647 5.62779 29.3715C5.51929 33.5784 6.50181 37.7417 8.4797 41.4563L5.81954 49.4367C5.59919 50.0975 5.56722 50.8065 5.72719 51.4844C5.88717 52.1623 6.23278 52.7822 6.72529 53.2747C7.21779 53.7672 7.83773 54.1128 8.51562 54.2728C9.19351 54.4328 9.90256 54.4008 10.5633 54.1805L18.5438 51.5203C21.8128 53.259 25.4349 54.2302 29.1352 54.36C32.8356 54.4898 36.5169 53.775 39.8997 52.2697C43.2825 50.7644 46.278 48.5082 48.6586 45.6724C51.0393 42.8366 52.7427 39.4957 53.6394 35.9033C54.5361 32.3109 54.6026 28.5614 53.8339 24.9395C53.0652 21.3175 51.4815 17.9183 49.2029 14.9998C46.9243 12.0813 44.0108 9.72028 40.6835 8.09591C37.3563 6.47154 33.7026 5.62652 30 5.625ZM30 50.625C26.3742 50.6275 22.812 49.6726 19.6735 47.857C19.4437 47.7238 19.1882 47.6409 18.9239 47.6138C18.6597 47.5867 18.3927 47.6161 18.1406 47.7L9.37501 50.625L12.2977 41.8594C12.3819 41.6075 12.4117 41.3406 12.385 41.0763C12.3584 40.8121 12.2759 40.5565 12.143 40.3266C9.86948 36.3959 8.95667 31.8248 9.54617 27.3224C10.1357 22.82 12.1945 18.638 15.4033 15.4251C18.6122 12.2123 22.7916 10.1481 27.2932 9.55294C31.7948 8.95776 36.3671 9.86478 40.3006 12.1333C44.2342 14.4019 47.3091 17.9051 49.0485 22.0996C50.7879 26.2941 51.0944 30.9453 49.9206 35.3318C48.7467 39.7182 46.1581 43.5947 42.5563 46.3599C38.9545 49.125 34.5408 50.6243 30 50.625Z" fill="black"/>
</svg>
