<?xml version="1.0" standalone="no"?>
<!DOCTYPE svg PUBLIC "-//W3C//DTD SVG 20010904//EN"
 "http://www.w3.org/TR/2001/REC-SVG-20010904/DTD/svg10.dtd">
<svg version="1.0" xmlns="http://www.w3.org/2000/svg"
 width="900.000000pt" height="900.000000pt" viewBox="0 0 900.000000 900.000000"
 preserveAspectRatio="xMidYMid meet">

<g transform="translate(0.000000,900.000000) scale(0.100000,-0.100000)"
fill="#000000" stroke="none">
<path d="M6075 8779 c-38 -39 -96 -89 -128 -111 -32 -21 -72 -52 -90 -67 -31
-28 -169 -116 -428 -274 -354 -216 -624 -474 -960 -919 -45 -60 -84 -108 -88
-108 -3 0 -37 46 -75 103 -188 278 -377 489 -605 675 -51 43 -119 98 -151 124
-81 66 -275 250 -351 333 -35 39 -80 96 -99 128 -33 55 -64 78 -79 60 -14 -16
-62 -188 -84 -302 -42 -220 -24 -656 43 -1034 27 -155 57 -564 52 -703 l-3
-82 -32 8 c-18 4 -82 34 -143 67 -61 32 -144 71 -185 86 -84 30 -334 89 -454
107 -44 6 -123 20 -175 30 -52 11 -144 27 -205 35 -60 9 -141 24 -180 34 -38
10 -115 28 -170 40 -55 13 -134 31 -175 42 -65 16 -77 17 -89 4 -12 -12 -12
-17 0 -33 40 -56 138 -178 209 -262 44 -52 99 -122 122 -155 23 -33 58 -78 78
-100 20 -22 68 -85 107 -140 39 -55 126 -175 194 -266 127 -171 185 -252 301
-422 56 -82 64 -99 50 -104 -59 -19 -246 -94 -357 -143 -71 -32 -163 -72 -204
-90 -40 -17 -177 -85 -305 -150 -127 -65 -257 -126 -290 -136 -67 -21 -99 -55
-75 -79 33 -31 365 -188 478 -225 66 -22 163 -61 214 -86 50 -26 177 -84 280
-130 103 -46 229 -106 279 -134 50 -27 94 -50 99 -50 28 0 10 -30 -63 -106
-94 -98 -154 -146 -315 -254 -135 -91 -366 -309 -361 -342 2 -15 54 -48 203
-127 111 -59 214 -116 230 -127 17 -12 93 -58 170 -104 77 -46 152 -92 167
-102 l27 -19 -39 -55 c-21 -31 -47 -79 -56 -107 -32 -98 -145 -346 -227 -500
-16 -31 -13 -60 9 -78 14 -12 385 -8 701 7 68 3 123 3 123 0 0 -3 -18 -33 -40
-68 -21 -35 -47 -92 -56 -128 -18 -73 -78 -249 -94 -281 -9 -15 -8 -24 1 -36
23 -27 208 -13 379 29 134 34 193 43 246 39 14 -1 37 -25 70 -73 123 -182 329
-341 549 -423 l60 -23 3 -95 3 -94 -64 -7 c-225 -23 -1196 -284 -1274 -342
-42 -32 -107 -117 -175 -230 -83 -139 -228 -429 -228 -457 0 -23 6 -27 53 -36
162 -31 839 -75 1492 -96 99 -3 243 -8 320 -10 329 -12 561 -12 880 1 817 31
1741 91 1847 120 33 9 28 38 -25 148 -129 266 -278 504 -350 557 -21 15 -81
41 -135 57 -412 129 -1067 292 -1171 292 -27 0 -28 2 -35 61 -14 138 -19 127
100 183 58 27 140 72 182 100 75 50 240 204 298 279 l29 38 160 -45 c88 -25
184 -54 213 -66 98 -38 129 -20 118 68 -4 26 -11 108 -16 182 -6 75 -19 166
-30 205 -11 38 -20 74 -20 79 0 10 43 4 235 -30 246 -43 348 -65 427 -90 94
-31 123 -26 114 17 -14 73 -154 347 -246 484 -53 79 -172 303 -168 315 3 10
213 164 276 204 75 47 241 127 339 162 117 42 133 51 133 69 0 26 -72 96 -189
184 -63 47 -133 100 -156 118 -23 17 -105 91 -181 165 -77 74 -167 151 -201
172 -35 20 -63 39 -63 41 0 3 38 29 84 60 123 81 300 167 466 226 179 64 429
191 536 274 61 46 207 171 226 192 45 50 -34 93 -305 169 -89 25 -206 60 -259
79 -53 19 -159 51 -235 71 -167 44 -293 88 -342 118 -20 12 -73 42 -118 66
-46 24 -83 46 -83 49 1 3 26 22 57 41 75 48 261 225 338 324 85 109 180 258
250 391 67 128 100 177 204 300 104 123 233 251 311 308 97 71 100 75 100 101
0 26 4 25 -130 41 -60 7 -368 -36 -550 -76 -177 -40 -576 -112 -684 -124 -72
-8 -165 -19 -206 -24 -72 -9 -215 -1 -238 13 -6 4 -9 12 -7 19 2 7 9 84 15
172 12 181 38 377 80 610 81 444 103 667 104 1056 1 187 -4 219 -38 219 -6 0
-42 -32 -81 -71z m69 -219 c-3 -69 -10 -161 -15 -205 -5 -44 -9 -121 -9 -171
0 -51 -6 -127 -14 -170 -8 -44 -18 -104 -21 -134 -4 -30 -18 -116 -32 -190
-50 -274 -82 -511 -99 -723 -16 -193 -16 -219 -3 -232 20 -20 175 -39 259 -32
237 19 577 74 915 147 181 39 383 71 488 77 59 3 107 4 107 1 0 -3 -42 -40
-93 -81 -91 -74 -170 -156 -297 -307 -83 -100 -125 -163 -194 -294 -106 -203
-246 -400 -360 -510 -98 -93 -187 -167 -241 -197 -62 -35 -69 -42 -61 -67 5
-16 151 -112 170 -112 5 0 35 -16 67 -35 69 -42 144 -69 379 -135 96 -27 192
-56 214 -65 21 -9 124 -41 230 -71 192 -55 296 -92 296 -105 0 -20 -241 -211
-300 -237 -19 -9 -54 -29 -78 -45 -66 -44 -211 -109 -372 -167 -80 -29 -197
-79 -260 -111 -151 -78 -314 -188 -318 -214 -1 -16 18 -32 87 -73 62 -37 121
-85 202 -165 63 -61 126 -121 139 -132 14 -11 59 -47 100 -81 41 -33 96 -75
122 -92 52 -36 141 -110 146 -122 2 -5 -12 -11 -30 -15 -46 -10 -229 -89 -308
-132 -81 -45 -154 -94 -293 -196 -105 -78 -108 -81 -101 -111 10 -48 105 -230
173 -334 34 -51 77 -125 97 -165 20 -40 44 -83 54 -97 19 -27 80 -163 76 -168
-2 -1 -16 2 -32 9 -54 20 -345 77 -593 115 -118 18 -140 18 -147 -1 -3 -8 6
-56 21 -107 16 -57 32 -150 40 -238 19 -194 19 -204 -2 -196 -10 3 -56 18
-103 34 -47 16 -128 39 -180 52 -52 12 -97 24 -99 26 -2 1 13 30 34 63 45 76
125 244 158 336 14 39 51 108 82 154 77 116 139 242 184 377 37 109 41 116
103 176 114 110 153 218 152 418 0 110 -3 135 -28 205 -56 163 -168 306 -285
362 l-58 28 -6 480 c-10 878 -58 1256 -193 1527 -267 535 -878 849 -1535 789
-776 -71 -1340 -526 -1518 -1226 -77 -302 -87 -958 -26 -1710 8 -99 15 -190
15 -202 0 -15 -15 -29 -55 -52 -94 -53 -175 -185 -210 -345 -48 -214 33 -496
178 -622 36 -31 124 -79 178 -97 9 -3 41 -43 72 -89 31 -45 84 -115 119 -154
54 -61 66 -82 81 -140 10 -38 32 -100 48 -138 16 -39 28 -71 26 -72 -1 -1 -33
-6 -72 -12 -38 -6 -137 -27 -220 -46 -162 -39 -245 -46 -245 -21 0 7 15 56 34
107 18 51 36 111 40 132 9 49 54 138 95 190 18 23 31 49 29 60 -3 20 -8 21
-203 20 -110 -1 -302 -5 -428 -9 -255 -9 -245 -12 -201 65 40 69 168 357 193
433 13 37 43 94 67 127 24 33 44 66 44 73 0 22 -38 51 -150 118 -58 34 -150
90 -205 124 -55 34 -174 101 -265 149 -91 49 -166 89 -168 90 -1 2 49 53 112
115 77 77 150 137 230 189 186 124 416 339 416 391 0 16 -17 28 -73 54 -39 18
-103 51 -142 73 -38 22 -86 46 -105 53 -65 26 -375 169 -422 195 -25 15 -102
45 -170 67 -117 38 -438 185 -438 200 0 4 35 21 77 39 43 18 125 57 183 88
219 118 539 264 770 353 184 70 184 71 188 95 4 26 -128 221 -373 554 -30 41
-108 148 -173 237 -65 90 -132 178 -149 195 -16 18 -49 60 -72 93 -43 63 -79
107 -198 246 -40 46 -73 87 -73 92 0 4 12 5 28 2 37 -8 181 -42 272 -65 67
-17 177 -37 310 -55 25 -4 72 -13 105 -20 33 -8 110 -21 170 -30 144 -22 370
-77 466 -113 41 -16 115 -51 165 -79 95 -54 193 -88 225 -78 28 9 32 38 26
228 -7 246 -24 450 -52 622 -46 282 -76 616 -68 775 7 166 62 460 85 460 4 0
14 -13 22 -28 30 -59 297 -329 432 -436 287 -230 474 -409 595 -571 93 -124
229 -323 229 -334 0 -5 7 -14 15 -21 30 -25 62 -2 141 102 220 288 426 517
594 662 147 127 225 182 500 351 140 86 264 164 276 173 11 9 63 49 115 88 52
39 110 88 129 108 l35 37 7 -38 c4 -21 5 -94 2 -163z m-1380 -1721 c600 -43
1097 -404 1260 -915 46 -146 75 -333 102 -659 15 -183 34 -1385 22 -1385 -3 0
-25 11 -49 24 -80 44 -151 58 -269 54 -110 -3 -144 -15 -138 -47 3 -13 24 -16
144 -16 l140 0 76 -38 c181 -89 279 -284 280 -557 1 -195 -44 -368 -148 -571
-74 -144 -157 -260 -281 -390 -70 -73 -101 -113 -97 -123 11 -28 43 -17 93 29
26 25 51 45 55 45 14 0 -107 -222 -166 -304 -71 -101 -227 -255 -318 -314
-243 -160 -540 -233 -890 -219 -314 13 -568 86 -777 224 -84 55 -213 183 -272
268 -54 77 -125 219 -137 270 l-7 30 30 -28 c31 -29 63 -29 63 0 0 9 -48 66
-107 127 -261 269 -363 475 -364 731 -1 228 73 432 191 525 104 82 264 124
392 101 114 -20 132 -20 136 5 4 31 -61 54 -168 61 -171 10 -329 -47 -436
-159 -33 -35 -65 -72 -71 -83 -7 -11 -13 -18 -16 -15 -6 7 -56 643 -68 880
-15 272 -15 741 0 915 24 284 66 453 162 655 145 304 381 545 680 696 190 95
463 168 683 182 61 4 118 8 126 9 8 0 73 -3 144 -8z m1586 -2899 c134 -138
196 -325 173 -517 -14 -111 -43 -190 -91 -243 l-37 -42 0 143 c0 108 -5 163
-19 219 -23 93 -81 220 -129 283 l-37 47 0 105 0 105 42 -21 c24 -12 68 -48
98 -79z m-3389 -292 c0 -13 6 -79 13 -147 11 -112 10 -133 -6 -205 -39 -181
-32 -336 21 -493 l29 -83 -49 27 c-136 74 -239 279 -239 478 0 147 71 329 158
405 51 45 72 50 73 18z m2209 -2318 l0 -119 -62 -29 c-138 -65 -276 -92 -463
-92 -198 0 -341 32 -447 99 l-47 30 -3 115 c-2 64 -1 116 2 116 3 0 46 -9 96
-20 257 -56 656 -49 868 14 22 7 44 11 49 9 4 -2 7 -58 7 -123z m-1090 -113
c0 -2 -18 -59 -40 -125 -65 -198 -120 -561 -120 -790 l0 -124 -217 7 c-120 4
-219 9 -221 10 -10 9 238 606 313 755 25 49 45 97 45 105 0 22 -29 31 -45 14
-35 -35 -214 -439 -335 -757 l-43 -112 -41 0 c-65 0 -540 28 -687 40 -133 11
-260 28 -267 35 -6 6 137 280 208 398 80 135 136 203 185 227 86 41 784 232
1065 291 121 25 200 35 200 26z m1430 -42 c192 -43 618 -156 838 -223 193 -59
200 -64 303 -221 68 -103 245 -438 236 -447 -13 -14 -646 -62 -862 -67 l-129
-2 -39 100 c-152 394 -312 747 -343 759 -12 5 -23 1 -31 -9 -9 -14 -6 -28 22
-78 62 -114 325 -740 325 -774 0 -7 -48 -13 -137 -17 -76 -4 -173 -9 -215 -12
l-78 -6 0 113 c0 233 -57 602 -124 803 l-43 128 60 -6 c34 -3 131 -22 217 -41z
m-1333 -45 c219 -136 651 -142 936 -12 91 41 85 45 121 -68 55 -171 116 -594
116 -801 l0 -67 -137 -8 c-166 -11 -1128 -10 -1195 0 l-48 7 0 102 c0 108 25
331 59 534 18 105 84 343 96 343 2 0 25 -13 52 -30z"/>
<path d="M4285 6494 c-210 -28 -434 -92 -612 -175 -119 -54 -273 -159 -305
-206 -79 -115 -46 -247 74 -298 80 -33 149 -17 363 85 178 85 263 116 380 140
124 26 344 43 435 35 195 -18 503 -86 790 -175 180 -55 211 -57 272 -16 104
69 102 216 -2 310 -86 78 -405 206 -645 260 -244 55 -528 70 -750 40z m456
-55 c272 -27 565 -111 795 -227 88 -45 124 -74 149 -122 39 -75 -12 -170 -91
-170 -20 0 -102 20 -183 45 -182 56 -442 120 -586 144 -164 29 -275 34 -425
22 -258 -22 -364 -53 -664 -195 -76 -36 -158 -68 -182 -72 -92 -14 -164 41
-164 124 0 65 25 101 112 162 196 139 529 254 838 289 109 12 283 13 401 0z"/>
<path d="M5205 5699 c-267 -39 -477 -206 -560 -446 -42 -119 -58 -242 -52
-393 9 -252 81 -410 235 -514 112 -76 267 -116 452 -116 340 0 666 242 742
550 20 82 14 258 -11 355 -67 255 -241 451 -469 531 -116 40 -218 50 -337 33z
m255 -71 c180 -43 350 -182 437 -359 73 -149 99 -360 59 -493 -62 -208 -228
-371 -461 -453 -75 -26 -90 -28 -230 -27 -124 0 -164 4 -232 23 -154 43 -251
118 -314 246 -101 203 -90 545 24 760 40 76 139 180 210 223 145 87 344 119
507 80z"/>
<path d="M5300 4985 c-14 -7 -34 -12 -46 -9 -24 6 -47 -16 -43 -43 1 -10 -1
-31 -6 -46 -8 -30 15 -67 42 -67 7 0 23 -11 35 -25 26 -30 57 -32 81 -5 10 12
22 18 27 15 6 -4 19 -3 30 0 15 5 20 15 20 44 0 22 -6 44 -15 51 -8 7 -15 21
-15 31 0 10 -17 30 -37 44 -43 29 -40 29 -73 10z"/>
<path d="M3658 5680 c-174 -28 -351 -121 -458 -244 -126 -143 -180 -356 -151
-603 49 -419 260 -617 641 -600 294 13 513 151 626 392 80 173 105 436 58 619
-64 247 -298 427 -573 441 -47 2 -112 0 -143 -5z m272 -76 c302 -91 445 -336
400 -690 -40 -322 -203 -525 -480 -600 -101 -28 -304 -26 -396 3 -228 72 -348
294 -349 643 0 217 46 341 173 467 99 100 248 171 407 197 53 8 188 -3 245
-20z"/>
<path d="M3665 4964 c-50 -48 -55 -71 -25 -99 12 -10 18 -25 15 -33 -3 -7 0
-23 6 -34 9 -17 17 -19 52 -14 23 4 63 9 89 12 49 6 65 23 49 52 -5 10 -7 29
-4 43 3 15 0 30 -6 33 -6 4 -11 17 -11 29 0 39 -16 50 -69 53 -48 2 -54 -1
-96 -42z"/>
<path d="M4312 4547 c-28 -33 -111 -367 -133 -534 -14 -110 -7 -257 16 -332
24 -77 102 -154 171 -169 83 -18 137 1 199 69 50 56 97 160 129 289 37 147 43
208 22 216 -28 11 -42 -13 -56 -88 -31 -174 -90 -327 -150 -387 -37 -36 -66
-46 -120 -38 -182 24 -207 333 -65 824 40 138 41 149 19 157 -21 8 -20 8 -32
-7z"/>
<path d="M5775 4209 c-52 -53 -134 -94 -243 -121 -115 -29 -369 -32 -476 -5
-52 13 -72 15 -82 6 -22 -18 -17 -29 20 -44 132 -55 459 -48 641 15 104 36
215 122 215 166 0 37 -30 30 -75 -17z"/>
<path d="M3155 4230 c-32 -52 177 -205 314 -230 70 -13 199 -13 280 1 135 21
281 89 281 130 0 26 -27 35 -48 16 -80 -70 -294 -116 -459 -97 -111 12 -191
50 -277 131 -64 59 -79 68 -91 49z"/>
<path d="M5495 3735 c-85 -23 -153 -53 -304 -135 -246 -134 -421 -188 -671
-210 -235 -20 -438 13 -725 115 -126 45 -133 47 -225 43 -85 -3 -102 -7 -158
-38 -240 -128 -312 -455 -167 -756 88 -183 292 -390 527 -536 105 -65 248
-136 359 -178 l86 -32 6 -63 c6 -79 32 -133 77 -163 30 -20 45 -23 100 -20
l65 3 7 -59 c22 -175 201 -197 253 -31 10 30 23 59 29 64 6 5 48 11 93 12 90
4 120 19 161 79 24 36 27 47 37 122 6 46 8 48 48 58 84 21 224 73 307 113 335
161 656 577 735 950 19 88 19 247 0 320 -45 175 -173 301 -346 342 -78 18
-227 18 -294 0z m35 -100 c0 -91 -43 -129 -120 -106 -39 12 -90 46 -90 61 0 5
15 17 33 26 32 17 155 63 170 64 4 0 7 -20 7 -45z m-270 -115 c0 -52 -21 -103
-51 -124 -39 -27 -75 -20 -120 22 l-40 37 98 52 c54 29 101 52 106 52 4 1 7
-17 7 -39z m-1502 -66 c39 -15 72 -30 72 -35 0 -4 -14 -21 -31 -38 -33 -33
-81 -41 -121 -20 -21 11 -57 82 -58 113 0 16 5 18 33 12 17 -3 65 -18 105 -32z
m1218 -90 c-4 -18 -18 -47 -32 -64 -36 -42 -85 -41 -150 3 -26 17 -49 37 -51
43 -2 7 23 18 59 27 35 9 88 25 118 35 62 22 67 18 56 -44z m-890 -10 c24 -3
46 -10 49 -14 3 -4 -5 -20 -16 -34 -76 -96 -201 -60 -224 66 l-7 36 77 -23
c42 -13 97 -27 121 -31z m584 -31 c-1 -57 -73 -148 -108 -136 -41 14 -107 112
-89 130 4 3 37 10 75 13 116 12 122 12 122 -7z m-260 -10 c10 -10 -37 -79 -69
-100 -63 -42 -114 -22 -140 56 -21 64 -22 64 97 56 59 -4 109 -9 112 -12z
m982 -1082 l33 -30 -75 -34 c-41 -19 -86 -38 -98 -42 -22 -6 -23 -5 -17 17 36
114 93 146 157 89z m-1276 -3 c8 -13 7 -72 -1 -99 -5 -16 -11 -15 -73 13 -81
36 -79 35 -61 53 39 39 119 59 135 33z m1030 -73 c14 -14 24 -33 22 -42 -3
-19 -81 -46 -163 -58 l-47 -8 20 39 c44 86 120 117 168 69z m-807 6 c9 -6 16
-32 19 -70 l4 -60 -73 21 c-41 11 -85 25 -98 30 l-25 9 26 25 c24 24 87 53
118 53 8 1 21 -3 29 -8z m521 -41 c15 -8 40 -57 40 -80 0 -8 -171 -32 -178
-26 -6 7 25 60 50 82 36 33 59 39 88 24z m-241 -14 c6 -7 14 -35 18 -61 l6
-48 -93 7 c-124 10 -128 12 -93 48 55 58 136 85 162 54z m-239 -141 c141 -32
310 -29 539 10 l73 13 -6 -52 c-12 -94 -70 -140 -163 -129 -72 8 -107 -8 -132
-62 -11 -23 -23 -55 -27 -69 -7 -31 -39 -56 -70 -56 -32 0 -64 45 -64 91 0 52
-14 85 -46 105 -22 15 -32 16 -71 6 -35 -10 -50 -10 -71 0 -35 17 -62 72 -62
126 0 37 3 43 18 38 9 -3 46 -12 82 -21z"/>
</g>
</svg>
