<?xml version="1.0" standalone="no"?>
<!DOCTYPE svg PUBLIC "-//W3C//DTD SVG 20010904//EN"
 "http://www.w3.org/TR/2001/REC-SVG-20010904/DTD/svg10.dtd">
<svg version="1.0" xmlns="http://www.w3.org/2000/svg"
 width="616.000000pt" height="512.000000pt" viewBox="0 0 616.000000 512.000000"
 preserveAspectRatio="xMidYMid meet">

<g transform="translate(0.000000,512.000000) scale(0.100000,-0.100000)"
fill="#000000" stroke="none">
<path d="M132 4968 c6 -20 281 -238 534 -424 241 -177 619 -427 779 -515 28
-15 226 -86 440 -157 453 -151 677 -228 900 -307 88 -31 171 -60 185 -65 14
-5 90 -31 170 -59 80 -27 224 -76 320 -109 328 -112 365 -128 365 -157 0 -13
-26 -40 -75 -77 -76 -59 -128 -99 -327 -255 -61 -49 -138 -107 -171 -131 -84
-60 -127 -101 -118 -109 11 -11 2828 -15 2845 -4 14 9 -2 31 -216 282 -43 49
-91 107 -108 127 -66 82 -241 291 -295 352 -31 36 -192 227 -357 425 -166 198
-358 428 -427 510 -70 83 -198 235 -284 339 -86 105 -189 224 -229 265 l-72
76 -1931 3 c-1548 2 -1931 0 -1928 -10z"/>
<path d="M450 2560 c-353 -6 -343 -2 -257 -96 49 -54 107 -123 280 -334 34
-41 80 -95 102 -120 48 -54 104 -120 250 -295 59 -71 124 -148 144 -171 20
-22 63 -74 96 -114 33 -40 116 -140 185 -221 69 -81 159 -189 200 -240 41 -51
93 -113 115 -139 22 -25 87 -104 145 -175 58 -71 121 -147 140 -170 19 -23 60
-73 90 -111 30 -38 80 -95 111 -128 l57 -60 1918 -3 c1055 -2 1924 -1 1931 1
23 9 3 32 -119 132 -66 54 -175 144 -242 200 -300 248 -745 558 -895 623 -63
27 -354 128 -706 246 -137 46 -288 98 -335 115 -96 36 -310 113 -475 170 -60
21 -148 52 -195 69 -47 18 -157 56 -245 86 -334 114 -409 142 -420 159 -8 15
-1 26 40 63 28 25 73 62 100 84 28 21 86 68 130 103 112 91 301 237 339 262
34 23 61 52 55 58 -7 6 -2210 11 -2539 6z"/>
</g>
</svg>
